<svg width="96" height="96" viewBox="0 0 96 96" fill="none" xmlns="http://www.w3.org/2000/svg">
<circle cx="48" cy="48.0001" r="48" fill="#EAE0D5" fill-opacity="0.4"/>
<path d="M30.2267 35.6068C27.8402 39.1268 26.442 43.4046 26.442 48.0001C26.442 60.149 36.1569 70.0001 48.1378 70.0001C60.1186 70.0001 69.8335 60.149 69.8335 48.0001C69.8335 35.8512 60.1186 26.0001 48.1378 26.0001C43.6781 26.0001 39.5077 27.369 36.0605 29.7157" stroke="#F47920" stroke-width="2" stroke-linecap="round" stroke-linejoin="round"/>
<path d="M71.8586 42.5988C74.8719 42.5988 77.3067 45.0676 77.3067 48.1232C77.3067 51.1788 74.8719 53.6476 71.8586 53.6476" stroke="#F47920" stroke-width="2" stroke-linecap="round" stroke-linejoin="round"/>
<path d="M24.7547 42.5988C21.7414 42.5988 19.3066 45.0676 19.3066 48.1232C19.3066 51.1788 21.7414 53.6476 24.7547 53.6476" stroke="#F47920" stroke-width="2" stroke-linecap="round" stroke-linejoin="round"/>
<path d="M49.8976 26.3903C49.1503 26.0725 48.3307 26.928 48.3066 27.7592C48.2825 28.5903 48.7646 29.3236 49.1986 30.0325C49.9459 31.2303 50.6449 32.5258 50.7896 33.9436C50.9342 35.3614 50.3316 36.9258 49.078 37.5614C48.3548 37.928 47.4388 37.928 46.7156 37.5614C45.9924 37.1947 45.438 36.4858 45.2451 35.6792" stroke="#F47920" stroke-width="2" stroke-linecap="round" stroke-linejoin="round"/>
</svg>
