<svg width="96" height="96" viewBox="0 0 96 96" fill="none" xmlns="http://www.w3.org/2000/svg">
<circle cx="48" cy="48.0001" r="48" fill="#EAE0D5" fill-opacity="0.4"/>
<path d="M55.0248 38.8943C55.0248 41.6017 52.8258 43.7982 50.1154 43.7982C47.4051 43.7982 45.2061 41.6017 45.2061 38.8943C45.2061 36.1869 47.4051 33.9904 50.1154 33.9904C52.8258 33.9904 55.0248 36.1869 55.0248 38.8943Z" stroke="#F47920" stroke-width="2" stroke-linecap="round" stroke-linejoin="round"/>
<path d="M35.771 32.3298C34.3902 34.603 33.5976 37.2848 33.5976 40.1199C33.5976 42.4187 34.1089 44.6152 35.0295 46.5819L18 63.8734V70.9484H29.4041V64.7674H35.592V58.2543H42.9049V54.1677C44.7204 54.9339 46.7148 55.3426 48.786 55.3426C57.1729 55.3426 64 48.5486 64 40.1455C64 31.7424 57.1984 24.9484 48.786 24.9484C46.4336 24.9484 44.209 25.5103 42.2146 26.4553" stroke="#F47920" stroke-width="2" stroke-linecap="round" stroke-linejoin="round"/>
</svg>
