<svg width="96" height="96" viewBox="0 0 96 96" fill="none" xmlns="http://www.w3.org/2000/svg">
<circle cx="48" cy="48.0001" r="48" fill="#EAE0D5" fill-opacity="0.4"/>
<path d="M38.9209 67.0244L36.1936 69.7519C34.552 71.3937 31.9042 71.3937 30.2626 69.7519L25.8672 65.3561C24.2256 63.7143 24.2256 61.0663 25.8672 59.4245L28.5944 56.697" stroke="#F47920" stroke-width="2" stroke-linecap="round" stroke-linejoin="round"/>
<path d="M24.8459 47.2668L28.4032 43.7092L51.919 67.2273L48.3616 70.785C46.7889 72.3578 44.2426 72.3578 42.6699 70.785L24.8646 52.9778C23.2919 51.405 23.2919 48.8584 24.8646 47.2856L24.8459 47.2668Z" stroke="#F47920" stroke-width="2" stroke-linecap="round" stroke-linejoin="round"/>
<path d="M70.1541 48.9962L66.5968 52.5539L43.081 29.0358L46.6383 25.4781C48.2111 23.9052 50.7574 23.9052 52.3301 25.4781L70.1541 43.3039C71.7269 44.8768 71.7269 47.4234 70.1541 48.9962Z" stroke="#F47920" stroke-width="2" stroke-linecap="round" stroke-linejoin="round"/>
<path d="M66.405 39.537L69.1323 36.8095C70.7739 35.1677 70.7739 32.5196 69.1323 30.8778L64.7369 26.482C63.0953 24.8402 60.4475 24.8402 58.8058 26.482L56.0786 29.2095" stroke="#F47920" stroke-width="2" stroke-linecap="round" stroke-linejoin="round"/>
<path d="M51.3392 37.2604L46.8909 41.7092" stroke="#F47920" stroke-width="2" stroke-linecap="round" stroke-linejoin="round"/>
<path d="M44.1372 58.5236L58.3559 44.277" stroke="#F47920" stroke-width="2" stroke-linecap="round" stroke-linejoin="round"/>
<path d="M40.4836 48.1169L37.1208 51.5064" stroke="#F47920" stroke-width="2" stroke-linecap="round" stroke-linejoin="round"/>
</svg>
