<svg width="96" height="96" viewBox="0 0 96 96" fill="none" xmlns="http://www.w3.org/2000/svg">
<circle cx="48" cy="48.0001" r="48" fill="#EAE0D5" fill-opacity="0.4"/>
<path d="M66.6324 37.369V28.7031C66.6324 26.6716 64.9977 25.0001 62.9544 25.0001H33.0455C31.0022 25.0001 29.342 26.6716 29.342 28.7031V37.2147" stroke="#F47920" stroke-width="2" stroke-linecap="round" stroke-linejoin="round"/>
<path d="M30.1339 70.0004V62.5431" stroke="#F47920" stroke-width="2" stroke-linecap="round" stroke-linejoin="round"/>
<path d="M65.8661 62.5431V70.0004" stroke="#F47920" stroke-width="2" stroke-linecap="round" stroke-linejoin="round"/>
<path d="M33.6074 41.715H61.7029" stroke="#F47920" stroke-width="2" stroke-linecap="round" stroke-linejoin="round"/>
<path d="M47.9872 41.7921V51.0237" stroke="#F47920" stroke-width="2" stroke-linecap="round" stroke-linejoin="round"/>
<path d="M25 56.8625V62.2883H71V42.4364C71 39.8906 69.0589 37.8077 66.6835 37.8077C64.3082 37.8077 62.367 39.8906 62.367 42.4364V52.0538L33.6074 52.0023V42.4364C33.6074 39.8906 31.6663 37.8077 29.2909 37.8077C26.9156 37.8077 25 39.8906 25 42.4364V48.0937" stroke="#F47920" stroke-width="2" stroke-linecap="round" stroke-linejoin="round"/>
</svg>
