<svg width="96" height="96" viewBox="0 0 96 96" fill="none" xmlns="http://www.w3.org/2000/svg">
<circle cx="48" cy="48" r="48" fill="#EAE0D5" fill-opacity="0.4"/>
<path d="M38.6756 49.3018C45.78 49.3018 45.7544 55.9585 45.7544 55.9585C45.3967 69.656 34.1778 68.1967 34.1778 68.1967C26 67.8638 26 59.5685 26 59.5685V55.6001C26.9967 49.3018 33.6411 49.3018 33.6411 49.3018H64.3589C64.3589 49.3018 71.0033 49.3018 72 55.6001V59.5685C72 59.5685 72 67.8638 63.8222 68.1967C63.8222 68.1967 52.6033 69.656 52.2456 55.9585C52.2456 55.9585 52.2456 49.3018 59.3244 49.3018" stroke="#F47920" stroke-width="2" stroke-linecap="round" stroke-linejoin="round"/>
<path d="M71.9234 55.0613L67.4256 31.481C66.9145 29.4072 65.5345 27.7686 63.6434 26.8725C61.7523 26.002 59.6056 26.0276 57.7401 26.9749L54.2645 28.7159" stroke="#F47920" stroke-width="2" stroke-linecap="round" stroke-linejoin="round"/>
<path d="M43.8124 28.7172L40.3368 26.9762C38.4713 26.0545 36.3246 26.0033 34.4335 26.8738C32.5424 27.7443 31.1624 29.4085 30.6513 31.4823L29.9868 34.9387" stroke="#F47920" stroke-width="2" stroke-linecap="round" stroke-linejoin="round"/>
<path d="M28.3257 43.5165L26.1279 55.0634" stroke="#F47920" stroke-width="2" stroke-linecap="round" stroke-linejoin="round"/>
<path d="M46.3677 57.7255H51.811" stroke="#F47920" stroke-width="2" stroke-linecap="round" stroke-linejoin="round"/>
</svg>
