<svg width="96" height="96" viewBox="0 0 96 96" fill="none" xmlns="http://www.w3.org/2000/svg">
<circle cx="48" cy="48.0001" r="48" fill="#EAE0D5" fill-opacity="0.4"/>
<path d="M22 51.3032L39.8799 51.2791L45.5726 40.5753L51.7758 59.4234L58.4676 51.2704L75 51.266" stroke="#F47920" stroke-width="2" stroke-linecap="round" stroke-linejoin="round"/>
<path d="M27.0179 37.74C26.6607 39.0187 26.4131 40.3389 26.4131 41.6985C26.4131 59.5433 48.5001 72.0001 48.5001 72.0001C48.5001 72.0001 70.5871 59.5455 70.5871 41.6985C70.5871 34.5903 65.2998 28.0023 58.7811 28.0023C54.5192 28.0023 50.5883 30.5094 48.5023 34.5619C46.4097 30.5072 42.4788 28.0001 38.2169 28.0001C36.2997 28.0001 34.5139 28.6209 32.9121 29.6089" stroke="#F47920" stroke-width="2" stroke-linecap="round" stroke-linejoin="round"/>
</svg>
