<svg width="96" height="96" viewBox="0 0 96 96" fill="none" xmlns="http://www.w3.org/2000/svg">
<path d="M48.5001 66H70.8903C71.504 66 72.0001 65.502 72.0001 64.886V55.9611H71.9087C68.4098 55.9611 65.5637 53.1041 65.5637 49.5917C65.5637 46.0794 68.4098 43.2224 71.9087 43.2224H72.0001V34.114C72.0001 33.498 71.504 33 70.8903 33H40.1053" stroke="#F47920" stroke-width="2" stroke-linecap="round" stroke-linejoin="round"/>
<path d="M72 43.2227H71.9086C68.4097 43.2227 65.5636 46.0797 65.5636 49.592C65.5636 53.1043 68.4097 55.9613 71.9086 55.9613H72" stroke="#F47920" stroke-width="2" stroke-linecap="round" stroke-linejoin="round"/>
<path d="M48.5 66H26.1097C25.4961 66 25 65.502 25 64.886V55.9611H25.0914C28.5903 55.9611 31.4364 53.1041 31.4364 49.5917C31.4364 46.0794 28.5903 43.2224 25.0914 43.2224H25V34.114C25 33.498 25.4961 33 26.1097 33H32.2719" stroke="#F47920" stroke-width="2" stroke-linecap="round" stroke-linejoin="round"/>
<path d="M25 43.2227H25.0914C28.5903 43.2227 31.4364 46.0797 31.4364 49.592C31.4364 53.1043 28.5903 55.9613 25.0914 55.9613H25" stroke="#F47920" stroke-width="2" stroke-linecap="round" stroke-linejoin="round"/>
<path d="M42.5073 45.6084H54.4923" stroke="#F47920" stroke-width="2" stroke-linecap="round" stroke-linejoin="round"/>
<path d="M42.5073 45.6084H54.4923" stroke="#F47920" stroke-width="2" stroke-linecap="round" stroke-linejoin="round"/>
<path d="M42.5073 53.3948H54.4923" stroke="#F47920" stroke-width="2" stroke-linecap="round" stroke-linejoin="round"/>
</svg>
